<svg viewBox="0 0 176 64" fill="currentColor" xmlns="http://www.w3.org/2000/svg"><path d="M37.955 30.765C39.055 29.5 39.68 27.995 39.68 26.4C39.68 20.42 35.2 16 25.6 16C20.095 16 16 17.6 16 17.6L17.44 21.44C17.44 21.44 20.385 19.84 25.6 19.84C30.815 19.84 35.84 21.34 35.84 26.4C35.84 27.16 35.64 27.79 35.285 28.32C31.365 25.315 26.34 23.525 22.4 23.525C20.165 23.525 16.8 24.65 16.8 27.84C16.8 32.945 24.655 34.4 28.8 34.4C31.13 34.4 33.22 33.895 34.935 33.045C36.53 34.775 37.6 36.885 37.6 39.36C37.6 43.16 33.6 44 31.36 44C25.28 44 21.765 39.895 20.64 37.44L16.96 38.4V47.04H20.8V43.84C20.8 43.84 24.66 48 31.36 48C37.765 48 41.6 44.23 41.6 39.36C41.6 36.115 40.155 33.19 37.955 30.765ZM20.8 28.16C20.8 26.545 26.765 27.345 31.59 30.335C27.14 31.18 20.8 29.58 20.8 28.16Z" fill="currentColor"/><path d="M44.5586 19.565C44.5586 17.985 45.7536 16.79 47.3336 16.79C48.9136 16.79 50.1086 17.985 50.1086 19.565C50.1086 21.1 48.9136 22.34 47.3336 22.34C45.7536 22.335 44.5586 21.1 44.5586 19.565ZM45.3236 47.04V25.705H49.2936V47.04H45.3236Z" fill="currentColor"/><path d="M57.7283 43.6251H70.3983V47.0401H52.9883V43.6251L64.9333 29.1601H53.7983V25.7051H69.9683V28.8201L57.7283 43.6251Z" fill="currentColor"/><path d="M77.5095 43.6251H90.1795V47.0401H72.7695V43.6251L84.7145 29.1601H73.5795V25.7051H89.7495V28.8201L77.5095 43.6251Z" fill="currentColor"/><path d="M111.218 34.8803V47.0403H107.463V43.2853C105.928 46.0153 103.283 47.5953 99.8283 47.5953C95.4333 47.5953 92.4883 45.0353 92.4883 41.2403C92.4883 36.9753 96.2433 34.3303 102.173 34.3303C103.878 34.3303 105.673 34.5453 107.248 34.9703V34.8853C107.248 31.3003 106.013 28.7003 102.258 28.7003C99.3583 28.7003 97.5233 30.2353 98.1633 33.0503H94.0233C92.8733 28.4403 96.8383 25.1553 102.298 25.1553C108.273 25.1503 111.218 29.0353 111.218 34.8803ZM107.378 38.2503C105.928 37.7803 104.133 37.5253 102.473 37.5253C98.6783 37.5253 96.5833 39.0203 96.5833 41.2803C96.5833 43.1553 98.0333 44.2253 100.423 44.2253C103.923 44.2253 106.783 41.9203 107.378 38.2503Z" fill="currentColor"/><path d="M136.686 36.3753C136.686 43.1153 132.631 47.5953 127.001 47.5953C123.756 47.5953 121.241 46.1453 119.661 43.6253V47.0403H115.691V17.1753H119.661V29.1203C121.241 26.6053 123.756 25.1503 127.001 25.1503C132.676 25.1503 136.686 29.6753 136.686 36.3753ZM132.506 36.3753C132.506 31.7253 129.901 28.6953 126.061 28.6953C122.136 28.6953 119.531 31.8103 119.531 36.3753C119.531 40.9403 122.136 44.0553 126.016 44.0553C129.946 44.0553 132.506 40.9403 132.506 36.3753Z" fill="currentColor"/><path d="M138.926 36.3753C138.926 29.6753 143.151 25.1553 149.466 25.1553C155.781 25.1553 160.006 29.6803 160.006 36.3753C160.006 43.0753 155.781 47.5953 149.466 47.5953C143.151 47.5953 138.926 43.0703 138.926 36.3753ZM155.821 36.3753C155.821 31.7653 153.306 28.6953 149.466 28.6953C145.671 28.6953 143.111 31.7653 143.111 36.3753C143.111 40.9403 145.671 44.0553 149.466 44.0553C153.306 44.0553 155.821 40.9403 155.821 36.3753Z" fill="currentColor"/></svg>