<svg id="Layer_1" data-name="Layer 1" xmlns="http://www.w3.org/2000/svg" viewBox="0 0 500 84.62"><defs><style>.cls-1{fill:#2b2d28;}</style></defs><path class="cls-1" d="M221.15,186.83a22.7,22.7,0,0,0-17.77,8.73,22.67,22.67,0,0,0-17.77-8.73c-12.78,0-23.14,10.88-23.14,24.31v27.5a2.21,2.21,0,0,0,2.21,2.21H171a2.2,2.2,0,0,0,2.2-2.21v-27.5c0-8.13,5.55-14.71,12.38-14.71S198,203,198,211.13v27.51a2.21,2.21,0,0,0,2.21,2.21h6.34a2.21,2.21,0,0,0,2.21-2.21V211.13c0-8.12,5.55-14.7,12.38-14.7s12.39,6.58,12.39,14.71v27.5a2.2,2.2,0,0,0,2.21,2.21h6.34a2.21,2.21,0,0,0,2.21-2.21v-27.5c0-13.43-10.36-24.31-23.14-24.31Z" transform="translate(-30 -157.69)"/><path class="cls-1" d="M529.47,237.76,505.66,213.9l22.48-22.52a1.81,1.81,0,0,0-1.28-3.09H518a2.41,2.41,0,0,0-1.7.71l-23.55,23.6V159.9a2.21,2.21,0,0,0-2.21-2.21h-6.35a2.2,2.2,0,0,0-2.2,2.21v78.73a2.2,2.2,0,0,0,2.2,2.21h6.35a2.2,2.2,0,0,0,2.21-2.21V215.21l24.88,24.93a2.4,2.4,0,0,0,1.7.7h8.9a1.8,1.8,0,0,0,1.28-3.08Z" transform="translate(-30 -157.69)"/><path class="cls-1" d="M142,190.5a25.4,25.4,0,0,0-13.48-3.67,25.11,25.11,0,0,0-13.43,3.67,27,27,0,0,0-9.52,10A28.36,28.36,0,0,0,102,214.63a27.34,27.34,0,0,0,3.67,14,26.86,26.86,0,0,0,10,10,27.4,27.4,0,0,0,14,3.66,31.91,31.91,0,0,0,11.59-2.06,30.66,30.66,0,0,0,8-4.61,2.31,2.31,0,0,0,.27-3.37l-3.27-3.65a2.35,2.35,0,0,0-3.19-.25,21,21,0,0,1-13.47,4.6,15.5,15.5,0,0,1-8.57-2.48,18.33,18.33,0,0,1-6.15-6.63A17.65,17.65,0,0,1,113,219h39.72A2.19,2.19,0,0,0,155,217a.57.57,0,0,1,0-.13q.06-1.12.06-2.19a28.86,28.86,0,0,0-3.49-14.14A26.45,26.45,0,0,0,142,190.5Zm-21.53,8.16a14,14,0,0,1,8.05-2.48,14.22,14.22,0,0,1,8.16,2.48,18.54,18.54,0,0,1,7.51,11.12H113.06a18.71,18.71,0,0,1,1.62-4.5A17.47,17.47,0,0,1,120.47,198.66Z" transform="translate(-30 -157.69)"/><path class="cls-1" d="M416.88,190.5a25.38,25.38,0,0,0-13.48-3.67A25.11,25.11,0,0,0,390,190.5a27,27,0,0,0-9.52,10,28.47,28.47,0,0,0-3.55,14.14,27.34,27.34,0,0,0,3.67,14,26.86,26.86,0,0,0,10,10,27.4,27.4,0,0,0,14,3.66,31.91,31.91,0,0,0,11.59-2.06,30.34,30.34,0,0,0,7.95-4.61,2.32,2.32,0,0,0,.28-3.37l-3.28-3.65a2.34,2.34,0,0,0-3.18-.25,21,21,0,0,1-13.48,4.6,15.5,15.5,0,0,1-8.57-2.48,18.5,18.5,0,0,1-6.15-6.63,17.65,17.65,0,0,1-1.83-4.85h39.72a2.19,2.19,0,0,0,2.2-2.05s0-.09,0-.13q.06-1.12.06-2.19a28.75,28.75,0,0,0-3.49-14.14A26.37,26.37,0,0,0,416.88,190.5Zm-21.52,8.16a14,14,0,0,1,8-2.48,14.17,14.17,0,0,1,8.16,2.48,18.08,18.08,0,0,1,5.86,6.62,18.81,18.81,0,0,1,1.66,4.5H388a18.69,18.69,0,0,1,1.61-4.5,17.5,17.5,0,0,1,5.8-6.62Z" transform="translate(-30 -157.69)"/><path class="cls-1" d="M467.39,213.74a32.51,32.51,0,0,0-9.1-3.84,68.19,68.19,0,0,1-7.28-2.61,10.1,10.1,0,0,1-3.78-2.54,4.89,4.89,0,0,1-1.13-3.25,5.31,5.31,0,0,1,2.13-4.32,9.63,9.63,0,0,1,6.15-1.72,17.8,17.8,0,0,1,6.68,1.42,22.37,22.37,0,0,1,4.4,2.38,2.33,2.33,0,0,0,3.22-.55l2.71-3.77a2.31,2.31,0,0,0-.55-3.26,25.72,25.72,0,0,0-6.53-3.25,30.3,30.3,0,0,0-9.82-1.6,23.05,23.05,0,0,0-9.63,1.9,15.85,15.85,0,0,0-6.57,5.2,13.06,13.06,0,0,0-2.36,7.81,13.63,13.63,0,0,0,7.39,12.77,47.79,47.79,0,0,0,10,4.14,49.45,49.45,0,0,1,6.75,2.43,9,9,0,0,1,3.31,2.36,4.85,4.85,0,0,1,.94,3,6,6,0,0,1-2.72,5.15,12.12,12.12,0,0,1-7.21,1.95,19.92,19.92,0,0,1-8.05-1.72,25.59,25.59,0,0,1-5.72-3.54,2.32,2.32,0,0,0-3.33.42l-2.74,3.73a2.32,2.32,0,0,0,.47,3.23,34.66,34.66,0,0,0,8.25,4.62,30.57,30.57,0,0,0,11.12,2q9.11,0,14.61-4.38a14.2,14.2,0,0,0,5.49-11.71,14,14,0,0,0-1.77-7.1,16,16,0,0,0-5.32-5.38Z" transform="translate(-30 -157.69)"/><path class="cls-1" d="M358.68,159.9v32.3a27.21,27.21,0,0,0-2.66-1.76,29.48,29.48,0,0,0-28.27,0,26.4,26.4,0,0,0-9.81,9.87,29.95,29.95,0,0,0,0,28.51,26.5,26.5,0,0,0,9.81,9.88,29.55,29.55,0,0,0,28.27,0,26.6,26.6,0,0,0,9.82-9.88,27.94,27.94,0,0,0,3.61-14.09V159.9a2.21,2.21,0,0,0-2.21-2.21h-6.35a2.21,2.21,0,0,0-2.21,2.21Zm-8,70.4a15.83,15.83,0,0,1-8.75,2.43,15.65,15.65,0,0,1-8.64-2.43,17.27,17.27,0,0,1-6-6.51,19,19,0,0,1-2.19-9.16,19.34,19.34,0,0,1,2.19-9.29,17.24,17.24,0,0,1,6-6.5,15.65,15.65,0,0,1,8.64-2.43,15.86,15.86,0,0,1,8.75,2.43,16.8,16.8,0,0,1,5.92,6.5,19.9,19.9,0,0,1,2.12,9.29,19.57,19.57,0,0,1-2.12,9.16A16.76,16.76,0,0,1,350.64,230.3Z" transform="translate(-30 -157.69)"/><path class="cls-1" d="M293.44,190.44a29.48,29.48,0,0,0-28.27,0,26.5,26.5,0,0,0-9.81,9.88,29.93,29.93,0,0,0,0,28.5,26.43,26.43,0,0,0,9.81,9.88,29.48,29.48,0,0,0,28.27,0,26.45,26.45,0,0,0,9.82-9.88,29.93,29.93,0,0,0,0-28.5A26.38,26.38,0,0,0,293.44,190.44Zm.54,33.35a16.68,16.68,0,0,1-5.92,6.51,15.83,15.83,0,0,1-8.75,2.43,15.62,15.62,0,0,1-8.63-2.43,17.21,17.21,0,0,1-6-6.51,19,19,0,0,1-2.19-9.16,19.34,19.34,0,0,1,2.19-9.29,17.18,17.18,0,0,1,6-6.5,15.62,15.62,0,0,1,8.63-2.43,15.83,15.83,0,0,1,8.75,2.43,16.72,16.72,0,0,1,5.92,6.5,19.79,19.79,0,0,1,2.13,9.29A19.45,19.45,0,0,1,294,223.79Z" transform="translate(-30 -157.69)"/><path class="cls-1" d="M55.25,164.53h-23A2.2,2.2,0,0,0,30,166.74V172a2.21,2.21,0,0,0,2.21,2.21H54.39c18,0,31,12.77,31,28.48a28.32,28.32,0,0,1-5.94,17.38,28.35,28.35,0,0,0,1.06-7.7c0-15.71-9.91-28.48-30.5-28.48H32.21A2.21,2.21,0,0,0,30,186.1v5.26a2.2,2.2,0,0,0,2.21,2.21H49.64c13.16.06,20.64,8.43,20.64,18.8s-7.48,18.79-20.64,18.79H40.76v-25.7a2.21,2.21,0,0,0-2.2-2.2H32.21a2.21,2.21,0,0,0-2.21,2.2v33.18a2.21,2.21,0,0,0,2.21,2.21h23c23.77,0,40.32-17.12,40.32-38.16S80.49,164.46,55.25,164.53Z" transform="translate(-30 -157.69)"/></svg>