<?xml version="1.0" encoding="UTF-8"?>
<svg width="254px" height="258px" viewBox="0 0 254 258" version="1.1" xmlns="http://www.w3.org/2000/svg" xmlns:xlink="http://www.w3.org/1999/xlink">
    <title>dotsLogo@2x</title>
    <g id="Page-1" stroke="none" stroke-width="1" fill="none" fill-rule="evenodd">
        <g id="dotsLogo@2x" transform="translate(0.100000, 0.498875)" fill-rule="nonzero">
            <path d="M253.9,59.0011247 C253.9,91.6011247 227.5,118.001125 194.9,118.001125 C162.3,118.001125 135.9,91.6011247 135.9,59.0011247 C135.9,26.4011247 162.3,0.00112468012 194.9,0.00112468012 C227.5,0.00112468012 253.9,26.4011247 253.9,59.0011247 Z" id="Path" fill="#B371A2"></path>
            <path d="M204.2,139.001125 C176.7,139.001125 155.1,161.101125 154.1,188.201125 L154.1,194.601125 C154.1,196.801125 152.3,198.501125 150.2,198.501125 L139.9,198.501125 C137.7,198.501125 136,200.301125 136,202.401125 L136,206.001125 C136,234.001125 159,257.001125 187.4,257.001125 C215.8,257.001125 238.8,234.101125 238.8,206.001125 L238.8,202.501125 C238.8,200.301125 240.6,198.501125 242.8,198.501125 L250.4,198.501125 C252.3,198.501125 253.9,196.901125 253.9,195.001125 L253.9,188.201125 C252.8,161.101125 231.6,139.001125 204.2,139.001125 Z" id="Path" fill="#54C0D6"></path>
            <path d="M108,139.401125 L4.1,139.401125 C1.9,139.401125 -1.42108547e-14,141.101125 -1.42108547e-14,143.301125 L-1.42108547e-14,180.401125 C-1.42108547e-14,182.601125 1.9,184.401125 4.1,184.401125 L21,184.401125 L21,252.901125 C21,255.201125 22.9,257.401125 25.2,257.401125 L86.9,257.401125 C89.2,257.401125 91,255.201125 91,252.901125 L91,184.401125 L108,184.401125 C110.2,184.401125 112,182.601125 112,180.401125 L112,143.301125 C112,141.101125 110.2,139.401125 108,139.401125 Z" id="Path" fill="#FEC356"></path>
            <path d="M52.5,0 C52.5,0 52.5,0 52.5,0 L9.4,0 C7.1,0 5.3,1.80112468 5.3,4.10112468 L5.3,113.801125 C5.3,116.101125 7.1,117.902249 9.4,117.902249 L52.5,117.902249 C85.1,118.101125 111.5,91.6011247 111.5,58.9011247 C111.5,26.3011247 85.1,-0.19887532 52.5,0 Z" id="Path" fill="#EF5227"></path>
        </g>
    </g>
</svg>