<svg xmlns:xlink="http://www.w3.org/1999/xlink" height="32" viewBox="0 0 198 32" width="198" xmlns="http://www.w3.org/2000/svg" class="gf-logo-0-2-14"><path class="icon" d="m21.218.894c-1.656-.58-3.434-.894-5.288-.894-1.446 0-2.848.192-4.18.552-4.216 1.138-8.43 4.594-9.552 8.932-.5 1.93-.434 3.938.56 5.7.184.328.39.642.618.942.26.348.55.676.864.978.452.438.956.826 1.508 1.158 1.902 1.14 4.136 1.474 6.288.934 2.598-.648 4.684-2.482 5.678-4.912h-4.324c-.19 0-.342-.154-.342-.344v-2.868c0-.19.152-.344.342-.344h10.21c.19 0 .344.154.344.344v10.808c0 .19-.154.344-.344.344h-2.866c-.19 0-.344-.154-.344-.344v-4.972c-1.572 2.83-4.254 4.93-7.494 5.738-.958.24-1.93.358-2.894.358-2.124 0-4.216-.574-6.084-1.696-.804-.482-1.538-1.05-2.192-1.69-.086-.082-.17-.168-.252-.254-.554-.574-1.048-1.2-1.474-1.874.752 8.138 7.596 14.51 15.93 14.51 8.838 0 16-7.164 16-16 0-6.984-4.474-12.924-10.712-15.106" fill="#258060"></path><path class="text" d="m46.911 17.865h4.434v3.264c-.526.4-1.148.714-1.864.958-.722.238-1.49.364-2.316.364-.888 0-1.69-.158-2.406-.472-.72-.314-1.338-.748-1.852-1.296-.522-.54-.922-1.196-1.204-1.956-.276-.764-.418-1.594-.418-2.482v-.054c0-.824.146-1.61.434-2.358.286-.742.684-1.392 1.188-1.946.504-.552 1.1-.996 1.782-1.328.688-.33 1.426-.498 2.222-.498.542 0 1.042.048 1.496.136.456.092.874.216 1.252.374.38.156.742.352 1.09.58.276.184.546.384.812.606l2.108-2.108.028-.034c-.444-.378-.906-.714-1.376-1.002-.472-.292-.97-.536-1.496-.732-.532-.2-1.106-.35-1.724-.46-.618-.102-1.306-.156-2.07-.156-1.302 0-2.504.238-3.604.714-1.096.482-2.044 1.128-2.84 1.946-.802.818-1.422 1.772-1.86 2.862-.444 1.09-.662 2.238-.662 3.442v.048c0 1.274.212 2.45.646 3.534.428 1.08 1.034 2.02 1.822 2.824.78.802 1.728 1.426 2.834 1.88 1.106.456 2.336.684 3.69.684.76 0 1.486-.07 2.18-.21.694-.144 1.344-.338 1.946-.582.602-.25 1.164-.536 1.686-.866.52-.332.992-.678 1.424-1.042v-7.284h-7.382zm11.991-.421c.132-1.024.5-1.854 1.102-2.49.604-.634 1.366-.954 2.292-.954.496 0 .938.092 1.326.274.388.18.722.424 1.004.73.28.306.502.668.668 1.09.164.422.274.872.322 1.35zm8.114-3.792c-.52-.642-1.174-1.154-1.958-1.534s-1.696-.57-2.738-.57c-.94 0-1.798.178-2.576.532-.776.356-1.448.842-2.018 1.462s-1.012 1.342-1.326 2.168-.47 1.71-.47 2.65v.05c0 1.008.174 1.93.52 2.762.346.836.822 1.548 1.424 2.144.604.594 1.314 1.056 2.13 1.386.818.33 1.698.496 2.64.496 1.204 0 2.242-.224 3.108-.67.866-.444 1.614-1.04 2.242-1.782l-1.758-1.56c-.53.51-1.066.9-1.61 1.164-.546.262-1.19.396-1.932.396-.976 0-1.806-.286-2.492-.856-.684-.57-1.11-1.39-1.274-2.464h9.61c.018-.148.03-.294.038-.434s.012-.276.012-.408c0-.942-.132-1.838-.394-2.688-.266-.85-.658-1.598-1.178-2.244zm7.341-5.424h-3.022v3.592h-2.092v2.576h2.092v6.888c0 .728.092 1.332.274 1.82.184.488.446.88.788 1.176.34.298.746.514 1.21.646.466.132.972.196 1.518.196.562 0 1.058-.056 1.486-.172.43-.114.834-.28 1.214-.496v-2.452c-.594.298-1.214.446-1.856.446-.514 0-.91-.128-1.19-.384-.282-.256-.422-.672-.422-1.25v-6.418h3.518v-2.576h-3.518zm8.754 2.081h9.86v-2.75h-12.882v17.34h3.022v-7.058h7.636v-2.75h-7.636zm11.992 7.135c.132-1.024.5-1.854 1.102-2.49.604-.634 1.366-.954 2.292-.954.496 0 .938.092 1.326.274.386.18.722.424 1.002.73s.504.668.67 1.09c.164.422.272.872.322 1.35zm8.114-3.792c-.522-.642-1.174-1.154-1.958-1.534s-1.698-.57-2.738-.57c-.94 0-1.8.178-2.576.532-.776.356-1.45.842-2.018 1.462-.57.62-1.012 1.342-1.326 2.168s-.47 1.71-.47 2.65v.05c0 1.008.172 1.93.52 2.762.346.836.82 1.548 1.424 2.144.602.594 1.314 1.056 2.13 1.386.818.33 1.698.496 2.638.496 1.206 0 2.242-.224 3.11-.67.866-.444 1.614-1.04 2.242-1.782l-1.758-1.56c-.53.51-1.066.9-1.612 1.164-.544.262-1.188.396-1.932.396-.974 0-1.804-.286-2.49-.856-.684-.57-1.11-1.39-1.276-2.464h9.612c.018-.148.03-.294.038-.434s.012-.276.012-.408c0-.942-.132-1.838-.396-2.688s-.656-1.598-1.176-2.244zm5.749 3.792c.132-1.024.5-1.854 1.102-2.49.604-.634 1.366-.954 2.292-.954.496 0 .938.092 1.326.274.386.18.722.424 1.002.73s.504.668.67 1.09c.164.422.272.872.322 1.35zm8.114-3.792c-.522-.642-1.174-1.154-1.958-1.534s-1.696-.57-2.738-.57c-.94 0-1.8.178-2.576.532-.776.356-1.45.842-2.018 1.462-.57.62-1.012 1.342-1.326 2.168s-.47 1.71-.47 2.65v.05c0 1.008.172 1.93.52 2.762.346.836.82 1.548 1.424 2.144.602.594 1.314 1.056 2.13 1.386.818.33 1.698.496 2.638.496 1.206 0 2.242-.224 3.11-.67.866-.444 1.614-1.04 2.242-1.782l-1.758-1.56c-.53.51-1.066.9-1.612 1.164-.544.262-1.188.396-1.932.396-.974 0-1.804-.286-2.49-.856-.684-.57-1.11-1.39-1.276-2.464h9.612c.018-.148.03-.294.038-.434s.012-.276.012-.408c0-.942-.132-1.838-.396-2.688s-.656-1.598-1.176-2.244zm13.33 4.732c0 .628-.103 1.2-.309 1.71-.206.512-.482.954-.828 1.326-.346.37-.748.656-1.21.854-.46.198-.938.298-1.432.298-.51 0-.992-.1-1.444-.298-.454-.198-.852-.478-1.198-.842-.346-.362-.618-.806-.816-1.326-.196-.518-.296-1.094-.296-1.722v-.048c0-.646.1-1.228.296-1.748.198-.52.47-.96.816-1.326.346-.362.744-.638 1.198-.828.452-.19.934-.286 1.444-.286.494 0 .972.1 1.432.298.462.198.864.48 1.21.842.346.364.622.804.828 1.326.206.52.308 1.094.308 1.722v.048zm-.05-4.534c-.479-.61-1.073-1.146-1.78-1.608-.709-.464-1.599-.694-2.669-.694-.774 0-1.528.148-2.262.446-.732.296-1.38.734-1.94 1.312s-1.008 1.288-1.346 2.13c-.338.844-.508 1.81-.508 2.9v.048c0 1.092.174 2.056.52 2.9.348.842.802 1.552 1.364 2.13.56.578 1.206 1.014 1.932 1.314.726.296 1.478.446 2.254.446 1.058 0 1.944-.242 2.662-.72.72-.478 1.318-1.056 1.798-1.734l-.026 2.18h3.022v-18.084h-3.022v7.034zm15.45 4.534c0 .644-.1 1.226-.297 1.748-.198.52-.466.958-.804 1.312-.34.356-.736.632-1.19.83s-.938.298-1.45.298c-.51 0-1-.1-1.462-.298s-.866-.478-1.212-.842c-.348-.362-.624-.806-.832-1.326-.206-.518-.308-1.094-.308-1.722v-.048c0-.628.102-1.198.308-1.71.208-.512.484-.954.832-1.326.346-.372.75-.656 1.212-.854s.952-.298 1.462-.298c.512 0 .996.1 1.45.298s.85.48 1.19.842c.338.364.606.804.804 1.326.198.52.298 1.094.298 1.722v.048zm1.127-5.078c-.57-.578-1.216-1.016-1.944-1.312-.726-.298-1.478-.446-2.254-.446-1.058 0-1.942.234-2.65.706-.712.47-1.306 1.052-1.784 1.746l.024-7.184h-3.022v18.084h3.022v-2.032c.462.612 1.046 1.148 1.754 1.612.708.46 1.6.694 2.67.694.774 0 1.528-.15 2.262-.446.732-.3 1.384-.736 1.952-1.314s1.022-1.288 1.36-2.13c.336-.844.506-1.808.506-2.9v-.048c0-1.09-.174-2.056-.52-2.9-.348-.842-.806-1.552-1.376-2.13zm11.778 6.848c0 .412-.086.79-.26 1.126-.174.338-.418.628-.732.868-.312.24-.68.426-1.1.556-.422.134-.88.2-1.376.2-.71 0-1.31-.166-1.796-.496-.488-.33-.732-.808-.732-1.438v-.048c0-.628.264-1.124.794-1.486.528-.364 1.262-.546 2.204-.546.578 0 1.128.05 1.648.148.52.1.97.224 1.35.372zm-2.848-8.546c-1.074 0-1.992.098-2.75.296-.76.198-1.504.462-2.23.792l.818 2.404c.594-.248 1.18-.446 1.758-.594s1.238-.224 1.982-.224c1.04 0 1.836.24 2.39.718.554.48.83 1.174.83 2.082v.248c-.512-.166-1.044-.298-1.598-.396-.554-.1-1.226-.15-2.018-.15-.76 0-1.466.086-2.118.26-.654.174-1.214.438-1.686.794-.47.356-.838.8-1.102 1.338-.264.536-.396 1.168-.396 1.894v.05c0 .66.128 1.242.384 1.746s.594.924 1.016 1.264c.42.338.912.594 1.474.768.56.174 1.156.26 1.784.26.99 0 1.832-.182 2.526-.546.694-.362 1.264-.808 1.71-1.336v1.608h2.972v-7.752c0-1.752-.47-3.11-1.412-4.076s-2.386-1.448-4.334-1.448zm16.004 10.514c-.538.306-1.162.458-1.87.458-.58 0-1.106-.11-1.586-.334s-.892-.524-1.24-.904c-.346-.38-.614-.826-.804-1.338-.19-.51-.284-1.056-.284-1.634v-.05c0-.562.094-1.098.284-1.61s.45-.954.78-1.326.726-.67 1.19-.892c.462-.222.966-.334 1.51-.334.76 0 1.4.152 1.922.458.518.306 1.01.698 1.472 1.176l1.858-2.006c-.61-.676-1.324-1.222-2.142-1.634-.818-.414-1.846-.62-3.084-.62-.974 0-1.88.182-2.714.546-.834.362-1.556.854-2.164 1.472-.608.62-1.082 1.348-1.422 2.18-.342.834-.514 1.714-.514 2.64v.048c0 .926.172 1.802.514 2.626.34.826.814 1.544 1.422 2.156s1.326 1.094 2.152 1.45c.826.354 1.726.532 2.7.532 1.272 0 2.32-.228 3.148-.682.826-.452 1.56-1.044 2.204-1.77l-1.808-1.784c-.48.478-.986.872-1.524 1.176m16.838-10.317h-3.642l-5.426 5.796v-10.8h-3.022v18.084h3.022v-3.742l1.834-1.908 3.94 5.65h3.466l-5.376-7.754z" fill="#0F1013"></path><g class="text" fill="#0F1013"><path d="m192.614 12.238h-.984v-.414h2.438v.414h-.99v2.68h-.464z" fill="#0F1013"></path><path d="m.429.338h.792l.796 2.452.85-2.452h.764v3.094h-.458v-2.68l-.958 2.68h-.412l-.916-2.652v2.652h-.458z" mask="url(#a)" transform="translate(194 11.485)" fill="#0F1013"></path></g></svg>