<svg xmlns="http://www.w3.org/2000/svg" xmlns:xlink="http://www.w3.org/1999/xlink" width="95" height="28" viewBox="0 0 95 28" version="1.1">
    <!-- Generator: sketchtool 58 (101010) - https://sketch.com -->
    <title>F0A23805-9D51-478F-8A0F-56F75329F80F@1.00x</title>
    <desc>Created with sketchtool.</desc>
    <g id="↳-Logo" stroke="none" stroke-width="1" fill="none" fill-rule="evenodd">
        <g id="Hudson-Logo-Blue" transform="translate(-2.000000, -2.000000)">
            <g transform="translate(1.999900, 2.000500)">
                <path d="M94.181,10.17 L94.181,9.985 L94.284,9.985 C94.37,9.985 94.415,10.014 94.415,10.08 C94.415,10.146 94.37,10.17 94.284,10.17 L94.181,10.17 Z M94.682,10.61 C94.654,10.577 94.65,10.544 94.637,10.421 C94.629,10.326 94.579,10.281 94.493,10.265 C94.596,10.248 94.67,10.17 94.67,10.051 C94.67,9.891 94.563,9.792 94.354,9.792 L93.939,9.792 L93.939,10.61 L94.181,10.61 L94.181,10.359 L94.276,10.359 C94.354,10.359 94.391,10.376 94.399,10.47 C94.407,10.561 94.415,10.586 94.436,10.61 L94.682,10.61 Z M94.901,10.199 C94.901,10.573 94.625,10.84 94.276,10.84 C93.926,10.84 93.651,10.573 93.651,10.199 C93.651,9.825 93.926,9.558 94.276,9.558 C94.625,9.558 94.901,9.825 94.901,10.199 L94.901,10.199 Z M95.04,10.199 C95.04,9.751 94.695,9.426 94.276,9.426 C93.856,9.426 93.511,9.751 93.511,10.199 C93.511,10.647 93.856,10.972 94.276,10.972 C94.695,10.972 95.04,10.647 95.04,10.199 L95.04,10.199 Z M11.567,27.506 L18.454,27.506 L18.454,15.633 L11.567,15.633 L11.567,27.506 Z M11.567,11.873 L18.454,11.873 L18.454,-1.59872116e-14 L11.567,-1.59872116e-14 L11.567,11.873 Z M-1.42108547e-14,19.689 L6.887,19.689 L6.887,7.816 L-1.42108547e-14,7.816 L-1.42108547e-14,19.689 Z M23.131,19.689 L30.018,19.689 L30.018,7.816 L23.131,7.816 L23.131,19.689 Z M88.8,15.247 C88.8,14.049 89.204,13.33 89.998,13.33 C90.792,13.33 91.092,13.899 91.092,14.947 L91.092,19.111 L93.922,19.111 L93.922,14.199 C93.922,12.491 93.068,11.099 91.077,11.128 C89.819,11.144 88.965,11.878 88.681,12.791 L88.725,13.03 L88.725,11.338 L85.97,11.338 L85.97,19.111 L88.8,19.111 L88.8,15.247 Z M82.346,15.232 C82.346,14.064 81.926,13.195 80.997,13.195 C80.069,13.195 79.65,14.064 79.65,15.232 C79.65,16.4 80.069,17.269 80.997,17.269 C81.926,17.269 82.346,16.4 82.346,15.232 L82.346,15.232 Z M85.161,15.232 C85.161,17.658 83.589,19.305 80.997,19.32 C78.392,19.305 76.834,17.658 76.834,15.232 C76.834,12.821 78.392,11.128 80.997,11.128 C83.589,11.128 85.161,12.821 85.161,15.232 L85.161,15.232 Z M68.672,16.67 C68.807,18.602 70.439,19.35 72.641,19.35 C74.872,19.35 76.28,18.407 76.28,16.7 C76.28,15.322 75.337,14.543 73.599,14.244 L72.027,13.974 C71.668,13.914 71.443,13.705 71.443,13.465 C71.443,13.09 71.877,12.851 72.461,12.851 C73.375,12.851 73.704,13.27 73.764,13.809 L76.205,13.66 C76.085,12.162 74.783,11.099 72.461,11.099 C70.26,11.099 68.867,12.132 68.867,13.75 C68.867,15.217 69.931,15.891 71.653,16.161 L72.881,16.355 C73.45,16.445 73.734,16.67 73.734,16.984 C73.734,17.358 73.345,17.598 72.656,17.598 C71.743,17.598 71.218,17.209 71.128,16.535 L68.672,16.67 Z M65.198,15.172 C65.198,14.064 64.569,13.195 63.67,13.195 C62.607,13.195 62.098,14.109 62.098,15.232 C62.098,16.37 62.607,17.254 63.67,17.254 C64.569,17.254 65.198,16.415 65.198,15.277 L65.198,15.172 Z M68.028,8.118 L68.028,19.111 L65.288,19.111 L65.288,17.858 C64.854,18.776 63.967,19.32 62.757,19.32 C60.556,19.32 59.267,17.538 59.267,15.232 C59.267,12.941 60.556,11.099 62.757,11.128 C63.907,11.142 64.761,11.611 65.198,12.427 L65.198,8.118 L68.028,8.118 Z M55.643,15.202 C55.643,16.4 55.239,17.119 54.445,17.119 C53.651,17.119 53.352,16.55 53.352,15.502 L53.352,11.338 L50.521,11.338 L50.521,16.251 C50.521,17.958 51.375,19.35 53.367,19.32 C54.625,19.305 55.478,18.572 55.763,17.658 L55.718,17.419 L55.718,19.111 L58.473,19.111 L58.473,11.338 L55.643,11.338 L55.643,15.202 Z M39.05,19.111 L39.05,8.118 L42.03,8.118 L42.03,12.357 L46.403,12.357 L46.403,8.118 L49.383,8.118 L49.383,19.111 L46.403,19.111 L46.403,14.768 L42.03,14.768 L42.03,19.111 L39.05,19.111 Z" fill="#1C54D9"/>
                <path d="M65.6118988,23.6053593 L64.8263085,23.6053593 L64.8263085,26.0274259 L65.6118988,26.0274259 C66.3452524,26.0274259 66.7815101,25.6813581 66.7815101,24.8165966 C66.7815101,23.9514271 66.3452524,23.6053593 65.6118988,23.6053593 L65.6118988,23.6053593 Z M65.5841481,25.7087007 L65.1964542,25.7087007 L65.1964542,23.9232683 L65.5841481,23.9232683 C66.1379382,23.9232683 66.4007539,24.1754734 66.4007539,24.8165966 C66.4007539,25.4564956 66.1379382,25.7087007 65.5841481,25.7087007 L65.5841481,25.7087007 Z M75.8735441,23.6053593 L75.2267074,24.7749706 L74.5757898,23.6053593 L74.1570803,23.6053593 L75.03939,25.0688017 L75.03939,26.0274259 L75.4095357,26.0274259 L75.4095357,25.0688017 L76.2918454,23.6053593 L75.8735441,23.6053593 Z M68.8513874,25.1308327 C68.8513874,25.4736358 68.750587,25.7433891 68.2837219,25.7433891 C67.813592,25.7433891 67.7127916,25.4736358 67.7127916,25.1308327 L67.7127916,23.6053593 L67.342646,23.6053593 L67.342646,25.1104278 C67.342646,25.6434049 67.5434306,26.064971 68.2837219,26.064971 C69.0211565,26.064971 69.2252059,25.6434049 69.2252059,25.1104278 L69.2252059,23.6053593 L68.8513874,23.6053593 L68.8513874,25.1308327 Z M73.8922242,24.2905572 C73.8922242,23.7747203 73.5249352,23.6053593 72.9613508,23.6053593 L71.9786488,23.6053593 L71.9786488,26.0274259 L72.3487944,26.0274259 L72.3487944,24.9753471 L72.8817715,24.9753471 L73.4837173,26.0274259 L73.895489,26.0274259 L73.2486523,24.9577988 C73.6428758,24.8961759 73.8922242,24.7125314 73.8922242,24.2905572 L73.8922242,24.2905572 Z M72.3487944,24.6607029 L72.3487944,23.9232683 L72.9576779,23.9232683 C73.275995,23.9232683 73.511468,23.9824426 73.511468,24.2905572 C73.511468,24.5982638 73.275995,24.6607029 72.9438025,24.6607029 L72.3487944,24.6607029 Z M69.9063229,26.0274259 L70.2768766,26.0274259 L70.2768766,24.9753471 L71.2493761,24.9753471 L71.2493761,24.6607029 L70.2768766,24.6607029 L70.2768766,23.9232683 L71.4950516,23.9232683 L71.4950516,23.6053593 L69.9063229,23.6053593 L69.9063229,26.0274259 Z M62.5617681,23.19522 L62.1879496,23.19522 L62.1879496,23.6053593 L61.4337829,23.6053593 L61.4337829,24.1775139 C61.4337829,24.710899 61.6345675,25.1328732 62.3748588,25.1328732 C63.1118853,25.1328732 63.3159347,24.710899 63.3159347,24.1775139 L63.3159347,23.6053593 L62.5617681,23.6053593 L62.5617681,23.19522 Z M62.9441567,23.9232683 L62.9441567,24.198735 C62.9441567,24.5411299 62.8437644,24.8112914 62.3764912,24.8112914 C61.9059533,24.8112914 61.805561,24.5411299 61.805561,24.198735 L61.805561,23.9232683 L62.1879496,23.9232683 L62.1879496,24.3338157 L62.5617681,24.3338157 L62.5617681,23.9232683 L62.9441567,23.9232683 Z" id="Fill-1" fill="#DF021B"/>
                <path d="M57.889118,25.4318056 L57.4863245,26.0276299 L57.1765775,26.0276299 L57.1835151,25.9892686 L58.8118295,23.6067876 L58.9424211,23.6067876 L59.5484479,25.9892686 L59.5419183,26.0276299 L59.255841,26.0276299 L59.1044364,25.4318056 L57.889118,25.4318056 Z M58.0368498,25.1840896 L59.0591374,25.1840896 L58.7910165,24.0581449 L58.0368498,25.1840896 Z M79.6934308,23.5863827 C80.165193,23.5863827 80.5610489,23.8377716 80.6059398,24.3401412 L80.330065,24.3401412 C80.2749716,23.9989706 79.9860376,23.8516469 79.6383374,23.8516469 C79.0388402,23.8410364 78.5809534,24.3127986 78.4989255,24.8910747 C78.4164895,25.3624288 78.6021745,25.7933812 79.2073851,25.7933812 C79.5697768,25.7933812 79.9346172,25.6309579 80.1268317,25.2591798 L80.433314,25.2591798 C80.1749874,25.8550041 79.6485399,26.0578292 79.1665752,26.0578292 C78.4915797,26.0578292 78.0614435,25.5795374 78.2165211,24.8225141 C78.3711906,24.0442696 79.0151705,23.5757721 79.6934308,23.5863827 L79.6934308,23.5863827 Z M81.4388695,26.0578292 C81.056889,26.0578292 80.7189832,25.8243967 80.7189832,25.3665098 C80.7189832,24.6809038 81.2911377,24.3368765 81.7865697,24.3368765 C82.1620206,24.3368765 82.5166585,24.5641875 82.5166585,25.0184015 C82.5166585,25.693397 82.0000054,26.0578292 81.4388695,26.0578292 L81.4388695,26.0578292 Z M81.4662121,25.8280696 C81.8241148,25.8280696 82.2277246,25.5934128 82.2550672,25.0600276 C82.2717992,24.73967 82.0310209,24.5605146 81.7661648,24.5605146 C81.4115269,24.5605146 80.9813907,24.8184331 80.9813907,25.3281485 C80.9813907,25.6591167 81.2017641,25.8280696 81.4662121,25.8280696 L81.4662121,25.8280696 Z M82.9292465,24.3609543 C83.2185885,24.2850479 83.3842767,24.4127828 83.3393858,24.6290752 C83.5324165,24.4127828 83.7107557,24.3368765 83.9727552,24.3368765 C84.2584244,24.3368765 84.3788135,24.5160318 84.3898322,24.7053897 C84.5685795,24.429923 84.8162955,24.3368765 85.0913541,24.3368765 C85.5325089,24.3368765 85.6051505,24.6604988 85.5223065,25.0428874 L85.4051821,25.5934128 C85.3668208,25.7725682 85.3500888,25.8513312 85.5839294,25.8243967 L85.5394466,26.0235489 C85.1815439,26.0961905 85.0440146,26.003144 85.1227777,25.6419765 L85.2505126,25.0428874 C85.3051979,24.7670126 85.2537774,24.5641875 84.9746378,24.5641875 C84.6963144,24.5641875 84.4828787,24.7600749 84.4171748,25.0632924 L84.2102687,26.0276299 L83.9384749,26.0276299 L84.145381,25.0632924 C84.2102687,24.7772151 84.1376271,24.5641875 83.8519579,24.5641875 C83.5703697,24.5641875 83.3357129,24.7572183 83.2704171,25.0632924 L83.0639191,26.0276299 L82.79539,26.0276299 L83.0435141,24.8669968 C83.0981994,24.6119351 83.1153395,24.5192966 82.8884366,24.5470474 L82.9292465,24.3609543 Z M85.7153372,26.8740269 L86.1622054,24.7772151 C86.1903643,24.6429506 86.2172988,24.5470474 86.0181466,24.5568417 L86.0560997,24.3609543 C86.321364,24.3164715 86.4760334,24.3854402 86.4107376,24.6915143 C86.5621423,24.4678762 86.7861886,24.3536085 87.0302317,24.3368765 C87.5640249,24.3095338 87.7223673,24.7119193 87.6774764,25.1494012 C87.6256479,25.6448332 87.2367297,26.0578292 86.7372167,26.0578292 C86.4931736,26.0578292 86.317283,25.9758014 86.2107692,25.7309421 L85.9667261,26.8740269 L85.7153372,26.8740269 Z M86.7237494,25.8170509 C87.1298078,25.8170509 87.3816048,25.4697588 87.4191499,25.1216505 C87.4505735,24.7878257 87.3297762,24.5813277 86.9890137,24.5813277 C86.5931578,24.5915301 86.317283,24.9637163 86.317283,25.359164 C86.317283,25.6248364 86.4588933,25.8170509 86.7237494,25.8170509 L86.7237494,25.8170509 Z M89.4743356,25.5828022 C89.4367905,25.7480822 89.4196504,25.8484745 89.6228836,25.8313344 L89.5812575,26.0341595 C89.3131366,26.0790504 89.1617319,26.0064088 89.2302925,25.6864593 C89.0752149,25.9378482 88.8034211,26.0578292 88.5381569,26.0578292 C88.0353791,26.0578292 87.873772,25.6448332 87.9737562,25.1804167 C88.0941453,24.636421 88.5381569,24.3368765 89.0788878,24.3368765 C89.3090556,24.3368765 89.5196346,24.3956427 89.7089924,24.4882811 L89.4743356,25.5828022 Z M89.4163856,24.6502964 C89.2882425,24.5850005 89.1405108,24.5641875 89.0131839,24.5641875 C88.6479355,24.5641875 88.3243131,24.8151683 88.2349394,25.2073513 C88.163114,25.5558677 88.2594254,25.8105214 88.6103904,25.8105214 C88.9478881,25.8105214 89.2196819,25.5452571 89.302526,25.1804167 L89.4163856,24.6502964 Z M90.1460663,24.3609543 C90.4313274,24.2956585 90.5937507,24.3915617 90.5386574,24.6502964 C90.690062,24.4197205 90.9483886,24.3368765 91.1956965,24.3368765 C91.6364432,24.3368765 91.7951937,24.636421 91.7123496,25.0388065 L91.581758,25.6623815 C91.5540073,25.8141942 91.5646178,25.8652066 91.7507109,25.837864 L91.7086767,26.0276299 C91.3891353,26.0827233 91.2340578,26.0170194 91.3062913,25.6693192 L91.4405558,25.0388065 C91.5062597,24.73967 91.3471012,24.5568417 91.0753073,24.5568417 C90.8006568,24.5568417 90.545595,24.7498725 90.4798911,25.0526818 L90.2733931,26.0276299 L90.0015993,26.0276299 L90.2529882,24.8396542 C90.3076734,24.5882653 90.339097,24.5086861 90.111786,24.5368449 L90.1460663,24.3609543 Z M92.0053646,26.4814358 C92.1604421,26.5846848 92.3697968,26.647124 92.5762949,26.647124 C92.8929796,26.6438592 93.1859945,26.5263267 93.2794492,26.1096578 L93.3651499,25.7309421 C93.2480255,25.9415211 92.9901071,26.0578292 92.7452478,26.0578292 C92.2494077,26.0753775 92.1261618,25.6623815 92.2085978,25.2420397 L92.3081739,24.7743584 C92.3461271,24.5947949 92.3355165,24.553985 92.1261618,24.5813277 C92.1359562,24.5258262 92.1567693,24.4262501 92.1706446,24.3711568 C92.5114071,24.3021881 92.6526093,24.4091099 92.5836406,24.7364052 L92.4771268,25.2387749 C92.391018,25.6419765 92.4905941,25.8170509 92.8072788,25.8170509 C93.1994618,25.8170509 93.4133056,25.4244599 93.4790095,25.111448 L93.6373518,24.367892 L93.9017999,24.367892 L93.5304299,26.1096578 C93.4100408,26.6781395 92.9933719,26.8874942 92.5595628,26.8874942 C92.3428623,26.8874942 92.122489,26.8262794 91.9363959,26.709155 L92.0053646,26.4814358 Z" id="Fill-3" fill="#3D3935"/>
            </g>
        </g>
    </g>
</svg>