<svg xmlns:xlink="http://www.w3.org/1999/xlink" xmlns="http://www.w3.org/2000/svg" width="215" height="78" viewBox="0 0 215 78" fill="none">
<path d="M205.024 50.5156C205.024 51.1134 204.888 51.7112 204.671 52.2819C204.426 52.8253 204.073 53.3416 203.638 53.7492C203.204 54.1568 202.66 54.4829 202.09 54.6731C201.519 54.8905 200.921 54.9721 200.296 54.9177C199.155 54.809 198.095 54.2927 197.334 53.4503C196.573 52.608 196.139 51.521 196.166 50.3797V38.1788C196.166 37.0103 196.628 35.8691 197.47 35.0539C198.312 34.2115 199.427 33.7495 200.595 33.7495C201.763 33.7495 202.905 34.2115 203.72 35.0539C204.562 35.8962 205.024 37.0103 205.024 38.1788V50.5156ZM200.595 26.7388C191.139 26.8203 186.818 31.005 186.818 39.3201V49.5645C186.818 57.7437 191.166 61.9285 200.595 61.9285C210.051 61.9285 214.372 57.7166 214.372 49.5645V39.3201C214.399 31.005 210.051 26.7388 200.595 26.7388Z" fill="#6A113C"/>
<path d="M103.884 26.7387C99.9714 26.7387 97.1182 28.0974 95.2704 30.3528V12.7987H86.439V61.2491H95.7867V38.2603C95.7867 37.0919 96.2487 35.9506 97.091 35.1354C97.9334 34.293 99.0475 33.831 100.216 33.831C101.384 33.831 102.526 34.293 103.341 35.1354C104.183 35.9777 104.645 37.0919 104.645 38.2603V61.2491H114.02V37.4179C113.993 29.8093 110.216 26.7387 103.884 26.7387Z" fill="#6A113C"/>
<path d="M138.666 27.4453H138.177V50.271C138.177 51.4123 137.743 52.5264 136.982 53.3688C136.221 54.2112 135.134 54.7275 133.993 54.8362C133.395 54.8905 132.77 54.809 132.199 54.5916C131.629 54.4014 131.085 54.0753 130.65 53.6677C130.188 53.2601 129.835 52.7438 129.591 52.2004C129.346 51.6297 129.21 51.0319 129.21 50.4341V27.4453H119.917V51.2765C119.917 58.8851 123.667 61.9557 130.107 61.9557C133.368 61.9557 135.84 61.0318 137.688 59.3742C137.906 59.184 138.177 59.0209 138.476 58.9394C138.775 58.8579 139.074 58.8579 139.373 58.9122C139.672 58.9666 139.944 59.1024 140.188 59.2655C140.433 59.4557 140.623 59.6731 140.759 59.9448L140.813 60.1079C140.976 60.4339 141.221 60.7329 141.52 60.9231C141.819 61.1133 142.199 61.222 142.552 61.222H147.471V27.4453H138.666Z" fill="#6A113C"/>
<path d="M171.682 50.4341C171.682 51.0319 171.547 51.6297 171.329 52.2004C171.085 52.7438 170.731 53.2601 170.297 53.6677C169.862 54.0753 169.318 54.4014 168.748 54.5916C168.177 54.809 167.579 54.8905 166.954 54.8362C165.813 54.7275 164.753 54.2112 163.992 53.3688C163.231 52.5264 162.797 51.4395 162.824 50.2982V38.0701C162.824 36.9017 163.286 35.7604 164.128 34.9452C164.971 34.1028 166.085 33.6408 167.253 33.6408C168.422 33.6408 169.563 34.1028 170.378 34.9452C171.22 35.7875 171.682 36.9017 171.682 38.0701V50.4341ZM176.139 27.5268C175.786 27.5268 175.432 27.6355 175.161 27.8257C174.862 28.0159 174.617 28.2876 174.481 28.5866C174.373 28.8583 174.182 29.0757 173.965 29.2387C173.748 29.4289 173.476 29.5376 173.204 29.592C172.932 29.6463 172.633 29.6463 172.362 29.5648C172.09 29.4833 171.818 29.3474 171.628 29.1572C169.998 27.6083 167.579 26.7388 164.291 26.7388C157.117 26.7388 153.395 30.7333 153.395 38.3962V50.4341C153.395 57.9068 157.09 61.8741 164.074 61.8741C167.443 61.8741 169.862 60.8415 171.465 59.0753V66.0589C171.465 66.6567 171.356 67.2273 171.112 67.7708C170.867 68.3143 170.541 68.8034 170.106 69.1838C169.672 69.5914 169.182 69.8903 168.612 70.0805C168.068 70.2708 167.47 70.3523 166.9 70.3251C165.786 70.2164 164.78 69.7273 164.019 68.9121C163.286 68.0969 162.878 67.0371 162.878 65.923H153.395C153.639 73.3957 157.987 77.2 167.172 77.2C176.628 77.2 180.949 73.1511 180.949 65.2165V27.5268H176.139Z" fill="#6A113C"/>
<path d="M50.5971 62.2546V11.7933C55.2166 14.2118 59.0752 17.8258 61.7926 22.2823C64.4828 26.7388 65.923 31.8202 65.923 37.0375C65.923 42.2548 64.4828 47.3363 61.7926 51.7927C59.1024 56.222 55.2166 59.8361 50.5971 62.2546ZM24.1573 62.2546C19.5378 59.8361 15.6791 56.222 12.9618 51.7656C10.2716 47.3091 8.8314 42.2277 8.8314 37.0103C8.8314 31.793 10.2716 26.7116 12.9618 22.2823C15.652 17.8258 19.5378 14.2118 24.1573 11.7933V62.2546ZM41.7657 0V48.3417C40.1081 47.7711 38.369 47.4993 36.6299 47.608C35.3799 47.6895 34.13 47.9341 32.9615 48.3689V0C23.8584 1.08694 15.4889 5.43471 9.42921 12.2553C3.34234 19.0758 0 27.9072 0 37.0103C0 46.1406 3.34234 54.9449 9.42921 61.7654C15.4889 68.586 23.8584 72.9609 32.9615 74.0207V60.9502C32.9343 59.7818 33.3963 58.6405 34.1843 57.7981C34.9723 56.9285 36.0864 56.4122 37.2549 56.3579C37.8527 56.3307 38.4234 56.4394 38.9668 56.6568C39.5103 56.8742 40.0266 57.2003 40.4342 57.6079C40.8418 58.0155 41.1951 58.5046 41.4125 59.0481C41.6298 59.5915 41.7657 60.1622 41.7657 60.76V74.0207C50.8417 72.9337 59.2111 68.586 65.298 61.7654C71.3849 54.9449 74.7272 46.1406 74.7272 37.0103C74.7272 27.88 71.3849 19.0758 65.298 12.2553C59.2111 5.43471 50.8417 1.08694 41.7657 0Z" fill="#FF5258"/>
</svg>