<svg xmlns:xlink="http://www.w3.org/1999/xlink" viewBox="0 0 159 44" fill="none" xmlns="http://www.w3.org/2000/svg" width="159"  height="44" ><path d="M21.9238 1.95555L19.5854 0.0952876C19.4669 0.00315223 19.3133 -0.0231722 19.1729 0.0207018L0.298343 6.33417C0.11846 6.39559 0 6.56231 0 6.75097V37.6383C0 37.7699 0.0614236 37.8971 0.162334 37.9805L2.67631 40.025C2.75529 40.0908 2.8562 40.1215 2.95272 40.1215C3.01853 40.1215 3.07995 40.1084 3.14138 40.0777C3.29494 40.0031 3.39146 39.8495 3.39146 39.6828V8.87009L21.7922 2.71457C21.9458 2.66192 22.0555 2.53468 22.0862 2.37674C22.1125 2.21879 22.0511 2.05646 21.9238 1.95555Z" fill="#4D6DFF"></path><path d="M27.7988 6.2245C27.7988 6.16747 27.7856 6.11043 27.7593 6.06217C27.7549 6.05339 27.7506 6.04462 27.7462 6.03584C27.7198 5.9832 27.6847 5.93493 27.6365 5.89983L25.298 4.03519C25.2673 4.00887 25.2322 3.99132 25.1971 3.97377C25.1883 3.96938 25.1751 3.96938 25.1664 3.96499C25.1357 3.95622 25.1093 3.94744 25.083 3.94305C25.0698 3.94305 25.0567 3.94305 25.0391 3.94305C25.0128 3.94305 24.9909 3.94305 24.9646 3.94305C24.947 3.94305 24.9338 3.94744 24.9163 3.95183C24.9031 3.95622 24.89 3.95622 24.8768 3.9606L6.06802 10.2565L5.85743 10.3267C5.67754 10.3881 5.55908 10.5549 5.55908 10.7435V41.5124C5.55908 41.644 5.62051 41.7712 5.72142 41.8546L5.93201 42.0257L8.2354 43.8991C8.27488 43.9298 8.31876 43.9561 8.36702 43.9737C8.41528 43.9912 8.46354 44 8.5118 44C8.56006 44 8.60394 43.9912 8.6522 43.9781L27.5049 37.6734C27.6847 37.612 27.8032 37.4452 27.8032 37.2566V6.23766C27.7988 6.23328 27.7988 6.22889 27.7988 6.2245ZM19.0986 9.46679V27.227V28.1045V30.6886L8.95054 34.0055V12.8626L19.0986 9.46679ZM8.95054 40.3014V37.4716L22.0118 33.286C22.1917 33.229 22.3146 33.0578 22.3146 32.8692V29.6093V28.7319V8.39188L24.5872 7.63286V35.0717L8.95054 40.3014Z" fill="#4D6DFF"></path><path d="M38.7104 22.7825C38.7104 19.7684 40.8778 16.219 45.3837 16.219C49.8939 16.219 52.0569 19.7684 52.0569 22.8045C52.0569 25.8406 49.8895 29.39 45.3837 29.39C40.8734 29.39 38.7104 25.8406 38.7104 22.8045V22.7825ZM42.4178 22.8308C42.4178 24.6165 43.7779 25.9327 45.3881 25.9327C46.9939 25.9327 48.3583 24.6165 48.3583 22.8089C48.3583 21.0013 46.9982 19.685 45.3881 19.685C43.7823 19.685 42.4178 21.0013 42.4178 22.8089V22.8308Z" fill="#333333"></path><path d="M53.8469 19.435H52.4648V16.6227H53.8469V16.0874C53.8469 12.4941 56.5056 12.1826 59.1161 12.1826V14.973C58.4229 14.973 57.5542 14.973 57.5542 16.1576V16.6271H59.1161V19.4394H57.5542V29.0171H53.8469V19.435Z" fill="#333333"></path><path d="M64.1182 19.435V29.0127H60.4108V19.435H59.0288V16.6227H60.4108V16.0874C60.4108 12.4941 63.0696 12.1826 65.6801 12.1826V14.973C64.9869 14.973 64.1182 14.973 64.1182 16.1576V16.6271H71.0152V29.0171H67.3078V19.435H64.1182ZM67.3078 15.3064V12.4941H71.0152V15.3064H67.3078Z" fill="#333333"></path><path d="M85.4142 24.3007C84.7429 27.113 82.2684 29.412 78.9165 29.412C75.1652 29.412 72.2871 26.4637 72.2871 22.7826C72.2871 19.1455 75.1214 16.1971 78.8287 16.1971C82.1105 16.1971 84.7649 18.3645 85.3923 21.4006H81.641C81.2374 20.5538 80.5003 19.6588 78.9603 19.6588C78.0916 19.6149 77.3546 19.9484 76.8193 20.5319C76.306 21.111 76.0164 21.9139 76.0164 22.809C76.0164 24.6166 77.201 25.9547 78.9647 25.9547C80.5047 25.9547 81.2418 25.0641 81.6454 24.3007H85.4142Z" fill="#333333"></path><path d="M90.0384 24.1032C90.1964 25.4195 91.4468 26.2926 92.8946 26.2926C94.0792 26.2926 94.7022 25.7792 95.1497 25.1299H98.9448C98.3438 26.5119 97.4707 27.5868 96.4221 28.302C95.3954 29.0391 94.1669 29.4164 92.8946 29.4164C89.3452 29.4164 86.3311 26.5383 86.3311 22.8528C86.3311 19.3912 89.0556 16.2015 92.8288 16.2015C94.7241 16.2015 96.3563 16.9386 97.5189 18.1671C99.0808 19.8431 99.5503 21.8262 99.2607 24.1032H90.0384ZM95.6192 21.2865C95.5314 20.7074 94.7724 19.321 92.8507 19.321C90.9291 19.321 90.17 20.703 90.0823 21.2865H95.6192Z" fill="#333333"></path><path d="M100.739 12.4941H104.447V16.2015V17.7634C105.118 16.649 106.368 16.2015 107.685 16.2015C109.58 16.2015 110.699 16.8728 111.37 17.9652C112.041 19.0358 112.217 20.5099 112.217 22.0938V29.0127H108.509V22.2693C108.509 21.5761 108.422 20.9311 108.128 20.4617C107.816 19.9922 107.325 19.6807 106.522 19.6807C105.495 19.6807 104.96 20.1502 104.714 20.6854C104.447 21.2207 104.447 21.8261 104.447 22.1376V29.0127H100.739V12.4941Z" fill="#333333"></path><path d="M113.23 22.7825C113.23 19.7684 115.398 16.219 119.904 16.219C124.414 16.219 126.577 19.7684 126.577 22.8045C126.577 25.8406 124.41 29.39 119.904 29.39C115.393 29.39 113.23 25.8406 113.23 22.8045V22.7825ZM116.938 22.8308C116.938 24.6165 118.298 25.9327 119.908 25.9327C121.514 25.9327 122.878 24.6165 122.878 22.8089C122.878 21.0013 121.518 19.685 119.908 19.685C118.302 19.685 116.938 21.0013 116.938 22.8089V22.8308Z" fill="#333333"></path><path d="M139.235 29.0128H135.773V27.6965C135.347 28.2976 134.566 29.4383 132.333 29.4383C128.135 29.4383 127.713 26.0469 127.713 24.3709V16.6227H131.421V23.3881C131.421 24.7482 131.71 25.9547 133.386 25.9547C135.238 25.9547 135.527 24.6385 135.527 23.3662V16.6227H139.235V29.0128Z" fill="#333333"></path><path d="M141.09 16.6227H144.574V18.0048C144.929 17.3335 145.579 16.1971 147.72 16.1971V19.9264H147.584C145.688 19.9264 144.793 20.6196 144.793 22.3614V29.0127H141.086V16.6227H141.09Z" fill="#333333"></path><path d="M154.393 20.1063C154.371 19.8387 154.327 19.1674 153.23 19.1674C152.449 19.1674 152.182 19.6588 152.182 19.9922C152.182 20.5494 153.099 20.9311 154.077 21.2207C156.174 21.7999 158.407 22.4273 158.407 25.1036C158.407 27.8281 156.108 29.4339 153.362 29.4339C151.488 29.4339 148.65 28.5872 148.316 25.3273H152.002C152.16 26.468 153.252 26.468 153.41 26.468C154.033 26.468 154.704 26.1127 154.704 25.5072C154.704 24.6604 153.788 24.5464 151.423 23.6338C149.817 23.1205 148.474 22.0719 148.474 20.3959C148.474 17.8293 150.708 16.1971 153.274 16.1971C154.902 16.1971 157.714 16.8465 158.03 20.1019H154.393V20.1063Z" fill="#333333"></path></svg>