<?xml version="1.0" encoding="UTF-8"?>
<svg xmlns="http://www.w3.org/2000/svg" xmlns:xlink="http://www.w3.org/1999/xlink" width="729.95pt" height="194.58pt" viewBox="0 0 729.95 194.58" version="1.1">
<defs>
<clipPath id="clip1">
  <path d="M 712 175 L 729.949219 175 L 729.949219 194 L 712 194 Z M 712 175 "/>
</clipPath>
<clipPath id="clip2">
  <path d="M 657 141 L 710 141 L 710 194.578125 L 657 194.578125 Z M 657 141 "/>
</clipPath>
<clipPath id="clip3">
  <path d="M 319 141 L 361 141 L 361 194.578125 L 319 194.578125 Z M 319 141 "/>
</clipPath>
<clipPath id="clip4">
  <path d="M 263 141 L 312 141 L 312 194.578125 L 263 194.578125 Z M 263 141 "/>
</clipPath>
<clipPath id="clip5">
  <path d="M 514 141 L 564 141 L 564 194.578125 L 514 194.578125 Z M 514 141 "/>
</clipPath>
</defs>
<g id="surface1">
<g clip-path="url(#clip1)" clip-rule="nonzero">
<path style=" stroke:none;fill-rule:nonzero;fill:rgb(15.299988%,13.699341%,37.298584%);fill-opacity:1;" d="M 721.132813 183.835938 C 722.289063 183.835938 723.316406 183.753906 723.316406 182.371094 C 723.316406 181.261719 722.308594 181.054688 721.359375 181.054688 L 719.507813 181.054688 L 719.507813 183.835938 Z M 719.558594 188.769531 L 718.230469 188.769531 L 718.230469 180.011719 L 721.566406 180.011719 C 723.636719 180.011719 724.660156 180.777344 724.660156 182.503906 C 724.660156 184.070313 723.675781 184.753906 722.390625 184.914063 L 724.878906 188.769531 L 723.394531 188.769531 L 721.085938 184.972656 L 719.558594 184.972656 Z M 721.105469 191.6875 C 725.066406 191.6875 728.191406 188.582031 728.191406 184.367188 C 728.191406 180.222656 725.066406 177.09375 721.105469 177.09375 C 717.097656 177.09375 713.96875 180.222656 713.96875 184.367188 C 713.96875 188.582031 717.097656 191.6875 721.105469 191.6875 M 712.210938 184.367188 C 712.210938 179.339844 716.285156 175.632813 721.105469 175.632813 C 725.878906 175.632813 729.953125 179.339844 729.953125 184.367188 C 729.953125 189.441406 725.878906 193.148438 721.105469 193.148438 C 716.285156 193.148438 712.210938 189.441406 712.210938 184.367188 "/>
</g>
<path style=" stroke:none;fill-rule:nonzero;fill:rgb(15.299988%,13.699341%,37.298584%);fill-opacity:1;" d="M 641.628906 83.742188 C 641.628906 84.636719 641.414063 85.640625 641.121094 86.554688 C 639.714844 90.65625 635.703125 94.667969 629.394531 94.667969 C 624.882813 94.667969 621.070313 91.964844 621.070313 86.253906 C 621.070313 76.828125 631.996094 75.128906 641.628906 75.320313 Z M 650.144531 88.460938 L 650.144531 70.3125 C 650.144531 60.578125 646.535156 50.460938 631.691406 50.460938 C 626.070313 50.460938 620.714844 51.890625 616.769531 54.171875 L 616.769531 61.316406 C 620.285156 58.488281 626.117188 56.773438 630.398438 56.773438 C 640.320313 56.773438 641.414063 64.195313 641.414063 68.207031 L 641.414063 69.210938 C 622.679688 69.109375 612.25 75.519531 612.25 87.257813 C 612.25 94.277344 617.265625 101.191406 627.078125 101.191406 C 634.003906 101.191406 639.21875 97.785156 641.917969 93.972656 L 642.21875 93.972656 L 642.921875 100.082031 L 650.945313 100.082031 C 650.34375 96.78125 650.144531 92.660156 650.144531 88.460938 "/>
<path style=" stroke:none;fill-rule:nonzero;fill:rgb(15.299988%,13.699341%,37.298584%);fill-opacity:1;" d="M 339.300781 42.320313 L 348.121094 42.320313 L 348.121094 33.5 L 339.300781 33.5 Z M 339.300781 42.320313 "/>
<path style=" stroke:none;fill-rule:nonzero;fill:rgb(15.299988%,13.699341%,37.298584%);fill-opacity:1;" d="M 339.296875 100.089844 L 348.117188 100.089844 L 348.117188 51.570313 L 339.296875 51.570313 Z M 339.296875 100.089844 "/>
<path style=" stroke:none;fill-rule:nonzero;fill:rgb(15.299988%,13.699341%,37.298584%);fill-opacity:1;" d="M 536.007813 42.320313 L 544.832031 42.320313 L 544.832031 33.5 L 536.007813 33.5 Z M 536.007813 42.320313 "/>
<path style=" stroke:none;fill-rule:nonzero;fill:rgb(15.299988%,13.699341%,37.298584%);fill-opacity:1;" d="M 536.007813 100.089844 L 544.828125 100.089844 L 544.828125 51.570313 L 536.007813 51.570313 Z M 536.007813 100.089844 "/>
<path style=" stroke:none;fill-rule:nonzero;fill:rgb(15.299988%,13.699341%,37.298584%);fill-opacity:1;" d="M 263.148438 32.511719 L 263.148438 72.515625 C 263.148438 87.457031 256.734375 94.070313 246.710938 94.070313 C 237.691406 94.070313 230.96875 87.65625 230.96875 72.515625 L 230.96875 32.511719 L 222.148438 32.511719 L 222.148438 72.320313 C 222.148438 93.265625 232.578125 101.191406 246.414063 101.191406 C 261.042969 101.191406 271.980469 92.671875 271.980469 71.914063 L 271.980469 32.511719 "/>
<path style=" stroke:none;fill-rule:nonzero;fill:rgb(15.299988%,13.699341%,37.298584%);fill-opacity:1;" d="M 309.546875 50.457031 C 301.527344 50.457031 295.910156 54.96875 293.503906 59.585938 L 293.304688 59.585938 L 292.808594 51.5625 L 284.984375 51.5625 C 285.28125 55.574219 285.378906 59.683594 285.378906 64.691406 L 285.378906 100.089844 L 294.210938 100.089844 L 294.210938 70.910156 C 294.210938 69.410156 294.40625 67.90625 294.804688 66.796875 C 296.316406 61.890625 300.824219 57.777344 306.636719 57.777344 C 314.960938 57.777344 317.867188 64.292969 317.867188 72.109375 L 317.867188 100.089844 L 326.6875 100.089844 L 326.6875 71.109375 C 326.6875 54.472656 316.261719 50.457031 309.546875 50.457031 "/>
<path style=" stroke:none;fill-rule:nonzero;fill:rgb(15.299988%,13.699341%,37.298584%);fill-opacity:1;" d="M 393.507813 51.570313 L 384.085938 78.84375 C 382.476563 83.253906 381.074219 87.265625 379.972656 91.269531 L 379.675781 91.269531 C 378.671875 87.265625 377.371094 83.253906 375.761719 78.84375 L 366.164063 51.5625 L 356.8125 51.570313 L 375.265625 100.097656 L 383.6875 100.097656 L 402.730469 51.570313 "/>
<path style=" stroke:none;fill-rule:nonzero;fill:rgb(15.299988%,13.699341%,37.298584%);fill-opacity:1;" d="M 481.445313 50.460938 C 475.511719 50.460938 470.578125 53.882813 468.320313 59.585938 L 468.121094 59.585938 L 467.625 51.5625 L 459.800781 51.5625 C 460.097656 56.070313 460.195313 60.984375 460.195313 66.699219 L 460.195313 100.089844 L 468.917969 100.089844 L 468.917969 74.21875 C 468.917969 72.714844 469.125 71.316406 469.324219 70.113281 C 470.527344 63.492188 474.9375 58.78125 481.152344 58.78125 C 482.355469 58.78125 483.257813 58.878906 484.164063 59.078125 L 484.164063 50.765625 C 483.359375 50.558594 482.449219 50.460938 481.445313 50.460938 "/>
<path style=" stroke:none;fill-rule:nonzero;fill:rgb(15.299988%,13.699341%,37.298584%);fill-opacity:1;" d="M 696.082031 79.738281 C 696.082031 81.140625 695.980469 82.34375 695.683594 83.542969 C 694.074219 90.15625 688.671875 94.292969 682.753906 94.292969 C 673.226563 94.292969 668.410156 85.085938 668.410156 75.253906 C 668.410156 64.527344 673.824219 56.789063 682.949219 56.789063 C 689.566406 56.789063 694.382813 61.988281 695.683594 67.601563 C 695.980469 68.703125 696.082031 70.214844 696.082031 71.316406 Z M 704.910156 87.554688 L 704.910156 28.90625 L 696.082031 28.90625 L 696.082031 57.878906 L 695.882813 57.878906 C 693.679688 53.964844 688.671875 50.460938 681.242188 50.460938 C 669.414063 50.460938 659.390625 60.105469 659.492188 76.253906 C 659.492188 90.984375 668.519531 101.191406 680.238281 101.191406 C 688.164063 101.191406 694.074219 97.078125 696.785156 91.667969 L 696.984375 91.667969 L 697.390625 100.089844 L 705.308594 100.089844 C 705.011719 96.78125 704.910156 91.867188 704.910156 87.554688 "/>
<path style=" stroke:none;fill-rule:nonzero;fill:rgb(15.299988%,13.699341%,37.298584%);fill-opacity:1;" d="M 491.078125 96.804688 L 491.078125 88.492188 C 495.820313 91.976563 503.148438 94.277344 508.128906 94.277344 C 513.734375 94.292969 517.65625 91.421875 517.65625 86.765625 C 517.65625 82.113281 512.453125 80.441406 505.972656 78.53125 C 498.058594 76.199219 490.609375 72.769531 490.609375 64.085938 C 490.609375 55.058594 497.800781 50.457031 508.492188 50.457031 C 513.789063 50.457031 519.101563 52.328125 522.046875 54.175781 L 522.046875 61.3125 C 522.046875 61.3125 515.480469 56.78125 507.917969 56.78125 C 502.433594 56.78125 498.257813 59.601563 498.257813 63.449219 C 498.257813 67.292969 502.503906 69.253906 509.402344 71.390625 C 517.214844 73.808594 525.226563 76.617188 525.226563 86.023438 C 525.226563 95.429688 517.933594 101.191406 506.839844 101.191406 C 502.328125 101.191406 496.875 99.875 491.078125 96.804688 "/>
<path style=" stroke:none;fill-rule:nonzero;fill:rgb(15.299988%,13.699341%,37.298584%);fill-opacity:1;" d="M 461.207031 142.488281 L 476.9375 142.488281 L 476.9375 193.148438 L 461.207031 193.148438 Z M 476.9375 134.890625 L 461.207031 134.890625 L 461.207031 121.929688 L 476.9375 121.929688 "/>
<path style=" stroke:none;fill-rule:nonzero;fill:rgb(15.299988%,13.699341%,37.298584%);fill-opacity:1;" d="M 632.269531 142.488281 L 648 142.488281 L 648 193.148438 L 632.269531 193.148438 Z M 648 134.890625 L 632.269531 134.890625 L 632.269531 121.929688 L 648 121.929688 "/>
<path style=" stroke:none;fill-rule:nonzero;fill:rgb(15.299988%,13.699341%,37.298584%);fill-opacity:1;" d="M 489.679688 119.59375 L 505.40625 119.59375 L 505.40625 193.148438 L 489.679688 193.148438 Z M 489.679688 119.59375 "/>
<path style=" stroke:none;fill-rule:nonzero;fill:rgb(15.299988%,13.699341%,37.298584%);fill-opacity:1;" d="M 371.769531 158.648438 C 371.769531 152.332031 371.5625 146.941406 371.355469 142.488281 L 385.027344 142.488281 L 385.753906 149.324219 L 386.066406 149.324219 C 388.242188 146.113281 392.464844 141.058594 401.398438 141.058594 C 408.179688 141.058594 413.105469 144.664063 415.28125 149.949219 L 415.667969 149.949219 C 419.304688 145.074219 424.234375 141.058594 431.984375 141.058594 C 441.429688 141.058594 449.554688 148.1875 449.554688 163.3125 L 449.554688 193.148438 L 433.816406 193.148438 L 433.816406 164.59375 C 433.816406 157.238281 431.433594 152.992188 426.355469 152.992188 C 421.652344 152.992188 418.484375 157.21875 418.484375 162.523438 L 418.484375 193.148438 L 402.746094 193.148438 L 402.746094 163.765625 C 402.746094 157.34375 400.464844 152.992188 395.492188 152.992188 C 390.585938 152.992188 387.515625 157.445313 387.515625 162.625 L 387.515625 193.148438 L 371.769531 193.148438 "/>
<path style=" stroke:none;fill-rule:nonzero;fill:rgb(15.299988%,13.699341%,37.298584%);fill-opacity:1;" d="M 572.546875 158.648438 C 572.546875 152.332031 572.339844 146.941406 572.132813 142.488281 L 585.808594 142.488281 L 586.53125 149.429688 L 586.84375 149.429688 C 588.917969 146.21875 593.878906 141.058594 602.488281 141.058594 C 613.210938 141.058594 620.617188 148.1875 620.617188 163.105469 L 620.617188 193.148438 L 604.871094 193.148438 L 604.871094 163.972656 C 604.871094 157.445313 602.59375 152.992188 596.894531 152.992188 C 591.621094 152.992188 588.296875 157.574219 588.296875 162.832031 L 588.296875 193.148438 L 572.546875 193.148438 "/>
<g clip-path="url(#clip2)" clip-rule="nonzero">
<path style=" stroke:none;fill-rule:nonzero;fill:rgb(15.299988%,13.699341%,37.298584%);fill-opacity:1;" d="M 683.75 182.644531 C 677.015625 182.644531 673.390625 176.527344 673.390625 167.824219 C 673.390625 159.121094 677.015625 153 683.75 153 C 690.480469 153 694.109375 159.121094 694.109375 167.824219 C 694.109375 176.527344 690.480469 182.644531 683.75 182.644531 M 684.164063 141.058594 C 667.898438 141.058594 657.121094 151.636719 657.121094 168.183594 C 657.121094 184.734375 668.519531 194.582031 683.332031 194.582031 C 696.90625 194.582031 709.519531 185.992188 709.519531 167.242188 C 709.519531 151.84375 699.703125 141.058594 684.164063 141.058594 "/>
</g>
<path style=" stroke:none;fill-rule:nonzero;fill:rgb(15.299988%,13.699341%,37.298584%);fill-opacity:1;" d="M 592.597656 79.738281 C 592.597656 81.140625 592.496094 82.339844 592.203125 83.542969 C 590.59375 90.15625 585.1875 94.292969 579.269531 94.292969 C 569.746094 94.292969 564.925781 85.085938 564.925781 75.253906 C 564.925781 64.527344 570.339844 56.789063 579.46875 56.789063 C 586.082031 56.789063 590.898438 61.988281 592.203125 67.601563 C 592.496094 68.703125 592.597656 70.214844 592.597656 71.316406 Z M 601.425781 87.554688 L 601.425781 28.90625 L 592.597656 28.90625 L 592.597656 57.878906 L 592.398438 57.878906 C 590.195313 53.964844 585.1875 50.460938 577.761719 50.460938 C 565.929688 50.460938 555.90625 60.105469 556.007813 76.253906 C 556.007813 90.984375 565.035156 101.191406 576.757813 101.191406 C 584.683594 101.191406 590.59375 97.078125 593.304688 91.667969 L 593.503906 91.667969 L 593.910156 100.089844 L 601.824219 100.089844 C 601.527344 96.78125 601.425781 91.867188 601.425781 87.554688 "/>
<path style=" stroke:none;fill-rule:nonzero;fill:rgb(15.299988%,13.699341%,37.298584%);fill-opacity:1;" d="M 268.179688 123.324219 L 214.515625 123.324219 L 214.515625 136.582031 L 233.472656 136.582031 L 233.472656 193.148438 L 249.222656 193.148438 L 249.222656 136.582031 L 268.179688 136.582031 "/>
<g clip-path="url(#clip3)" clip-rule="nonzero">
<path style=" stroke:none;fill-rule:nonzero;fill:rgb(15.299988%,13.699341%,37.298584%);fill-opacity:1;" d="M 319.109375 167.816406 C 319.109375 183.941406 330.402344 194.578125 347.125 194.578125 C 352.582031 194.578125 357.242188 193.734375 360.210938 192.621094 L 360.210938 180.425781 C 357.78125 181.863281 353.964844 182.636719 349.933594 182.636719 C 341.851563 182.636719 335.417969 177.613281 335.417969 167.816406 C 335.417969 158.023438 341.851563 153 349.933594 153 C 353.964844 153 357.78125 153.773438 360.210938 155.210938 L 360.210938 143.015625 C 357.242188 141.902344 352.582031 141.058594 347.125 141.058594 C 330.402344 141.058594 319.109375 151.695313 319.109375 167.816406 "/>
</g>
<path style=" stroke:none;fill-rule:nonzero;fill:rgb(15.299988%,13.699341%,37.298584%);fill-opacity:1;" d="M 440.761719 71.121094 L 414.996094 71.121094 C 415.703125 65.011719 419.605469 56.789063 428.527344 56.789063 C 438.457031 56.789063 440.855469 65.507813 440.761719 71.121094 M 449.277344 73.324219 C 449.277344 64.398438 445.082031 50.464844 429.230469 50.464844 C 415.097656 50.464844 406.476563 62.003906 406.476563 76.632813 C 406.476563 91.273438 415.246094 101.195313 430.589844 101.195313 C 440.089844 101.195313 445.71875 97.640625 445.71875 97.640625 L 445.71875 89.332031 C 445.71875 89.332031 439.722656 94.28125 431.175781 94.28125 C 423.257813 94.28125 415.097656 89.375 414.898438 77.4375 L 448.984375 77.4375 C 449.078125 76.535156 449.277344 75.132813 449.277344 73.324219 "/>
<g clip-path="url(#clip4)" clip-rule="nonzero">
<path style=" stroke:none;fill-rule:nonzero;fill:rgb(15.299988%,13.699341%,37.298584%);fill-opacity:1;" d="M 278.914063 163.351563 C 279.3125 159.070313 281.964844 152.992188 288.496094 152.992188 C 295.621094 152.992188 297.253906 159.480469 297.253906 163.351563 Z M 311.78125 166.617188 C 311.78125 153.941406 304.960938 141.058594 288.601563 141.058594 C 271.003906 141.058594 263.035156 155.410156 263.035156 168.398438 C 263.035156 183.84375 274.957031 194.578125 291.523438 194.578125 C 297.359375 194.578125 303.667969 193.449219 307.890625 190.96875 L 307.886719 179.34375 C 304.292969 181.683594 298.613281 182.640625 294.296875 182.640625 C 286.328125 182.640625 279.789063 179.828125 278.914063 172.90625 L 311.257813 172.90625 C 311.46875 171.753906 311.78125 169.335938 311.78125 166.617188 "/>
</g>
<g clip-path="url(#clip5)" clip-rule="nonzero">
<path style=" stroke:none;fill-rule:nonzero;fill:rgb(15.299988%,13.699341%,37.298584%);fill-opacity:1;" d="M 530.421875 163.351563 C 530.820313 159.070313 533.46875 152.992188 540.003906 152.992188 C 547.128906 152.992188 548.761719 159.480469 548.761719 163.351563 Z M 563.285156 166.617188 C 563.285156 153.941406 556.464844 141.058594 540.109375 141.058594 C 522.511719 141.058594 514.539063 155.410156 514.539063 168.398438 C 514.539063 183.84375 526.464844 194.578125 543.03125 194.578125 C 548.863281 194.578125 555.175781 193.449219 559.398438 190.96875 L 559.394531 179.34375 C 555.796875 181.683594 550.117188 182.640625 545.800781 182.640625 C 537.832031 182.640625 531.296875 179.828125 530.421875 172.90625 L 562.765625 172.90625 C 562.972656 171.753906 563.285156 169.335938 563.285156 166.617188 "/>
</g>
<path style=" stroke:none;fill-rule:nonzero;fill:rgb(21.598816%,57.998657%,26.699829%);fill-opacity:1;" d="M 104.769531 72.785156 C 100.273438 79.074219 96.515625 85.890625 93.617188 93.140625 C 90.722656 85.890625 86.964844 79.074219 82.464844 72.785156 C 85.710938 66.996094 89.449219 61.492188 93.617188 56.355469 C 97.789063 61.492188 101.527344 66.996094 104.769531 72.785156 M 187.234375 13.695313 L 187.234375 -0.00390625 L 182.921875 -0.00390625 C 148.273438 -0.00390625 116.785156 13.796875 93.617188 36.144531 C 70.449219 13.796875 38.964844 -0.00390625 4.3125 -0.00390625 L 0 -0.00390625 L 0 13.695313 L 4.292969 13.695313 C 35.347656 13.695313 63.570313 26.078125 84.273438 46.148438 C 80.207031 51.035156 76.488281 56.210938 73.140625 61.636719 C 55.660156 43.703125 31.28125 32.53125 4.3125 32.511719 L 0 32.511719 L 0 46.210938 L 4.292969 46.210938 C 27.996094 46.210938 50.300781 56.335938 66.300781 74.390625 C 63.136719 81.144531 60.550781 88.191406 58.597656 95.523438 C 47.40625 77.265625 27.257813 65.042969 4.3125 65.042969 L 0 65.042969 L 0 78.742188 L 4.292969 78.742188 C 31.835938 78.742188 54.246094 101.152344 54.246094 128.695313 L 54.246094 193.148438 L 67.945313 193.148438 L 67.945313 128.695313 C 67.945313 114.132813 70.675781 100.207031 75.625 87.371094 C 82.691406 99.53125 86.757813 113.640625 86.757813 128.695313 L 86.757813 193.148438 L 100.480469 193.148438 L 100.480469 128.695313 C 100.480469 113.640625 104.546875 99.53125 111.609375 87.371094 C 116.5625 100.207031 119.292969 114.132813 119.292969 128.695313 L 119.292969 193.148438 L 132.992188 193.148438 L 132.992188 128.695313 C 132.992188 101.152344 155.398438 78.742188 182.941406 78.742188 L 187.234375 78.742188 L 187.234375 65.042969 L 182.921875 65.042969 C 159.980469 65.042969 139.832031 77.265625 128.636719 95.523438 C 126.6875 88.191406 124.097656 81.144531 120.9375 74.390625 C 136.9375 56.335938 159.242188 46.210938 182.941406 46.210938 L 187.234375 46.210938 L 187.234375 32.511719 L 182.921875 32.511719 C 155.953125 32.53125 131.574219 43.703125 114.097656 61.636719 C 110.746094 56.210938 107.03125 51.035156 102.964844 46.148438 C 123.667969 26.078125 151.886719 13.695313 182.941406 13.695313 "/>
</g>
</svg>
